<?xml version="1.0" encoding="UTF-8" standalone="no"?>
<!-- Created with Inkscape (http://www.inkscape.org/) -->

<svg
   xmlns:dc="http://purl.org/dc/elements/1.1/"
   xmlns:cc="http://creativecommons.org/ns#"
   xmlns:rdf="http://www.w3.org/1999/02/22-rdf-syntax-ns#"
   xmlns:svg="http://www.w3.org/2000/svg"
   xmlns="http://www.w3.org/2000/svg"
   xmlns:sodipodi="http://sodipodi.sourceforge.net/DTD/sodipodi-0.dtd"
   xmlns:inkscape="http://www.inkscape.org/namespaces/inkscape"
   id="svg3355"
   version="1.1"
   inkscape:version="0.91 r13725"
   xml:space="preserve"
   width="380.77499"
   height="122.3375"
   viewBox="0 0 380.77499 122.3375"
   sodipodi:docname="HeritageBaptist_Logo_Horizontal.svg"><metadata
     id="metadata3361"><rdf:RDF><cc:Work
         rdf:about=""><dc:format>image/svg+xml</dc:format><dc:type
           rdf:resource="http://purl.org/dc/dcmitype/StillImage" /><dc:title></dc:title></cc:Work></rdf:RDF></metadata><defs
     id="defs3359" /><sodipodi:namedview
     pagecolor="#ffffff"
     bordercolor="#666666"
     borderopacity="1"
     objecttolerance="10"
     gridtolerance="10"
     guidetolerance="10"
     inkscape:pageopacity="0"
     inkscape:pageshadow="2"
     inkscape:window-width="1600"
     inkscape:window-height="841"
     id="namedview3357"
     showgrid="false"
     inkscape:zoom="3.7318627"
     inkscape:cx="190.3875"
     inkscape:cy="61.168751"
     inkscape:window-x="0"
     inkscape:window-y="0"
     inkscape:window-maximized="1"
     inkscape:current-layer="g3363" /><g
     id="g3363"
     inkscape:groupmode="layer"
     inkscape:label="ink_ext_XXXXXX"
     transform="matrix(1.25,0,0,-1.25,0,122.3375)"><g
       id="g3365"
       transform="scale(0.1,0.1)"><path
         d="m 285.211,55.7617 c 0,-29.2695 12.078,-41.6679 27.793,-46.92186 l 225.469,0 c 15.722,5.25396 27.793,17.65236 27.793,46.92186 l 0,221.7073 -281.055,0 0,-221.7073"
         style="fill:#4b7cc8;fill-opacity:1;fill-rule:nonzero;stroke:none"
         id="path3367"
         inkscape:connector-curvature="0" /><path
         d="M 425.18,978.691 C 55.7773,978.691 0.00390625,625.41 0.00390625,581.59 c 0,-43.817 0,-572.75016 0,-572.75016 l 159.12109375,0 c 15.461,5.35936 26.984,17.93746 26.984,46.92186 l 0,466.5823 c 0,46.297 -29.425,50.75 -57.296,50.75 l -10.84,0 0,2.207 -2.254,0.019 c 0,157.336 117.449,287.149 269.433,306.797 l 0,-66.64 c 0,0 -47.375,0 -58.097,0 -20.34,0 -36.836,-16.493 -36.836,-36.844 0,-9.824 0,-36.836 0,-36.836 0,0 26.328,0 36.836,0 20.351,0 58.097,0 58.097,0 l 0.106,-117.442 -0.106,0 c 0,0 0,-28.878 0,-51.261 l -39.55,0 c -27.872,0 -60.391,-2.672 -60.391,-50.75 l 0,-195.008 281.055,0 0,195.008 c 0,48.078 -32.512,50.75 -60.391,50.75 l -40.559,0 c 0,19.277 0,51.261 0,51.261 l -0.117,0 0,117.442 c 24.199,0 52.227,0 58.098,0 20.34,0 36.836,16.496 36.836,36.836 0,9.832 0,36.844 0,36.844 0,0 -26.32,0 -36.836,0 -10.606,0 -36.106,0 -58.098,0 l 0,66.64 C 617.184,862.469 734.633,732.656 734.633,575.32 l -1.133,-0.007 0,-2.219 -10.828,0 c -27.883,0 -57.305,-4.453 -57.305,-50.75 l 0,-466.5823 c 0,-28.9844 11.524,-41.5625 26.981,-46.92186 l 158.007,0 c 0,0 0,535.17216 0,572.75016 0,37.57 -55.781,397.101 -425.175,397.101"
         style="fill:#4b7cc8;fill-opacity:1;fill-rule:nonzero;stroke:none"
         id="path3369"
         inkscape:connector-curvature="0" /><path
         d="m 998.766,492.762 61.964,0 0,-111.453 114.27,0 0,111.453 61.97,0 0,-281.66 -61.97,0 0,113.07 -114.27,0 0,-113.07 -61.964,0 0,281.66"
         style="fill:#4b7cc8;fill-opacity:1;fill-rule:nonzero;stroke:none"
         id="path3371"
         inkscape:connector-curvature="0" /><path
         d="m 1296.49,492.762 212.45,0 0,-55.125 -150.89,0 0,-57.129 132.78,0 0,-55.125 -132.78,0 0,-59.153 152.9,0 0,-55.128 -214.46,0 0,281.66"
         style="fill:#4b7cc8;fill-opacity:1;fill-rule:nonzero;stroke:none"
         id="path3373"
         inkscape:connector-curvature="0" /><path
         d="m 1690.79,355.957 c 30.17,0 47.48,16.094 47.48,39.836 l 0,0.809 c 0,26.55 -18.51,40.234 -48.69,40.234 l -61.57,0 0,-80.879 62.78,0 z m -124.74,136.805 128.76,0 c 35.81,0 63.57,-10.059 82.09,-28.563 15.68,-15.691 24.14,-37.82 24.14,-64.386 l 0,-0.801 c 0,-45.465 -24.55,-74.043 -60.36,-87.313 l 68.81,-100.597 -72.43,0 -60.36,90.136 -48.69,0 0,-90.136 -61.96,0 0,281.66"
         style="fill:#4b7cc8;fill-opacity:1;fill-rule:nonzero;stroke:none"
         id="path3375"
         inkscape:connector-curvature="0" /><path
         d="m 1859.74,211.102 61.9727,0 0,281.66 -61.9727,0 0,-281.66 z"
         style="fill:#4b7cc8;fill-opacity:1;fill-rule:nonzero;stroke:none"
         id="path3377"
         inkscape:connector-curvature="0" /><path
         d="m 2057.7,435.625 -85.7,0 0,57.137 233.38,0 0,-57.137 -85.72,0 0,-224.523 -61.96,0 0,224.523"
         style="fill:#4b7cc8;fill-opacity:1;fill-rule:nonzero;stroke:none"
         id="path3379"
         inkscape:connector-curvature="0" /><path
         d="m 2378.37,329.004 -37.42,91.336 -37.42,-91.336 74.84,0 z m -65.18,165.769 57.14,0 120.71,-283.671 -64.79,0 -25.75,63.175 -119.1,0 -25.75,-63.175 -63.17,0 120.71,283.671"
         style="fill:#4b7cc8;fill-opacity:1;fill-rule:nonzero;stroke:none"
         id="path3381"
         inkscape:connector-curvature="0" /><path
         d="m 2503.88,351.133 0,0.801 c 0,80.078 62.37,145.664 147.67,145.664 50.7,0 81.28,-13.684 110.65,-38.633 l -39.03,-47.082 c -21.72,18.105 -41.04,28.578 -73.63,28.578 -45.06,0 -80.88,-39.836 -80.88,-87.719 l 0,-0.808 c 0,-51.504 35.41,-89.329 85.31,-89.329 22.53,0 42.65,5.637 58.34,16.907 l 0,40.234 -62.36,0 0,53.516 122.31,0 0,-122.324 c -28.96,-24.543 -68.8,-44.661 -120.3,-44.661 -87.73,0 -148.08,61.567 -148.08,144.856"
         style="fill:#4b7cc8;fill-opacity:1;fill-rule:nonzero;stroke:none"
         id="path3383"
         inkscape:connector-curvature="0" /><path
         d="m 2831.78,492.762 212.45,0 0,-55.125 -150.89,0 0,-57.129 132.79,0 0,-55.125 -132.79,0 0,-59.153 152.91,0 0,-55.128 -214.47,0 0,281.66"
         style="fill:#4b7cc8;fill-opacity:1;fill-rule:nonzero;stroke:none"
         id="path3385"
         inkscape:connector-curvature="0" /><path
         d="m 1059.12,21.6875 c 15.05,0 24.21,5.918 24.21,17.2188 l 0,0.3515 c 0,10.586 -8.43,16.8555 -25.83,16.8555 l -34.96,0 0,-34.4258 36.58,0 z m -6.46,53.0781 c 14.17,0 23.67,5.5547 23.67,17.0313 l 0,0.3515 c 0,9.8636 -7.89,15.9566 -22.06,15.9566 l -31.73,0 0,-33.3394 30.12,0 z m -51.82,52.8904 56.3,0 c 14.35,0 25.65,-3.945 32.82,-11.125 5.55,-5.554 8.42,-12.371 8.42,-20.7888 l 0,-0.3594 c 0,-15.0625 -8.6,-23.125 -17.93,-27.9726 14.7,-5.0196 24.93,-13.4454 24.93,-30.4766 l 0,-0.3633 c 0,-22.4101 -18.47,-34.42186 -46.44,-34.42186 l -58.1,0 0,125.50756"
         style="fill:#4f4c4c;fill-opacity:1;fill-rule:nonzero;stroke:none"
         id="path3387"
         inkscape:connector-curvature="0" /><path
         d="m 1241.46,51.9922 -21.7,50.2028 -21.51,-50.2028 43.21,0 z m -31.56,76.5548 20.44,0 55.22,-126.39856 -23.31,0 -12.72,30.30076 -59.35,0 -12.91,-30.30076 -22.59,0 55.22,126.39856"
         style="fill:#4f4c4c;fill-opacity:1;fill-rule:nonzero;stroke:none"
         id="path3389"
         inkscape:connector-curvature="0" /><path
         d="m 1389.91,62.3906 c 16.67,0 27.07,9.3203 27.07,22.4141 l 0,0.3516 c 0,14.707 -10.58,22.4097 -27.07,22.4097 l -25.64,0 0,-45.1754 25.64,0 z m -47.7,65.2654 49.49,0 c 29.22,0 47.69,-16.679 47.69,-41.9646 l 0,-0.3476 c 0,-28.1563 -22.59,-42.8555 -50.21,-42.8555 l -24.91,0 0,-40.33986 -22.06,0 0,125.50756"
         style="fill:#4f4c4c;fill-opacity:1;fill-rule:nonzero;stroke:none"
         id="path3391"
         inkscape:connector-curvature="0" /><path
         d="m 1527.96,107.219 -39.8,0 0,20.437 101.84,0 0,-20.437 -39.8,0 0,-105.07056 -22.24,0 0,105.07056"
         style="fill:#4f4c4c;fill-opacity:1;fill-rule:nonzero;stroke:none"
         id="path3393"
         inkscape:connector-curvature="0" /><path
         d="m 1649.7,2.14844 22.0508,0 0,125.508 -22.0508,0 0,-125.508 z"
         style="fill:#4f4c4c;fill-opacity:1;fill-rule:nonzero;stroke:none"
         id="path3395"
         inkscape:connector-curvature="0" /><path
         d="m 1732,20.4375 13.27,15.7734 c 12.01,-10.4023 24.02,-16.3086 39.62,-16.3086 13.63,0 22.23,6.2696 22.23,15.7735 l 0,0.3594 c 0,8.9648 -5.02,13.8086 -28.33,19.1796 -26.71,6.4571 -41.76,14.3438 -41.76,37.4688 l 0,0.3633 c 0,21.5121 17.92,36.3941 42.84,36.3941 18.29,0 32.81,-5.554 45.55,-15.769 l -11.84,-16.6798 c -11.3,8.4298 -22.59,12.9098 -34.06,12.9098 -12.91,0 -20.44,-6.632 -20.44,-14.8825 l 0,-0.3632 c 0,-9.6758 5.73,-13.9805 29.75,-19.7149 26.55,-6.457 40.34,-15.957 40.34,-36.7578 l 0,-0.3516 c 0,-23.4961 -18.46,-37.480437 -44.82,-37.480437 -19.18,0 -37.28,6.640627 -52.35,20.085937"
         style="fill:#4f4c4c;fill-opacity:1;fill-rule:nonzero;stroke:none"
         id="path3397"
         inkscape:connector-curvature="0" /><path
         d="m 1918.46,107.219 -39.8,0 0,20.437 101.83,0 0,-20.437 -39.79,0 0,-105.07056 -22.24,0 0,105.07056"
         style="fill:#4f4c4c;fill-opacity:1;fill-rule:nonzero;stroke:none"
         id="path3399"
         inkscape:connector-curvature="0" /><path
         d="m 2090.77,64.5391 0,0.3632 c 0,35.6717 26.72,64.9027 64.72,64.9027 23.13,0 37.11,-8.067 49.12,-19.543 l -14.16,-16.3167 c -10.03,9.3247 -20.8,15.5937 -35.13,15.5937 -24.04,0 -41.42,-19.7148 -41.42,-44.2773 l 0,-0.3594 c 0,-24.5585 17.38,-44.6484 41.42,-44.6484 15.41,0 25.27,6.2774 36.03,16.3164 l 14.16,-14.3437 C 2192.43,8.60156 2178.08,0 2154.59,0 c -36.57,0 -63.82,28.5078 -63.82,64.5391"
         style="fill:#4f4c4c;fill-opacity:1;fill-rule:nonzero;stroke:none"
         id="path3401"
         inkscape:connector-curvature="0" /><path
         d="m 2263.77,127.656 22.06,0 0,-52.1794 59.89,0 0,52.1794 22.05,0 0,-125.50756 -22.05,0 0,52.89066 -59.89,0 0,-52.89066 -22.06,0 0,125.50756"
         style="fill:#4f4c4c;fill-opacity:1;fill-rule:nonzero;stroke:none"
         id="path3403"
         inkscape:connector-curvature="0" /><path
         d="m 2433.21,55.3984 0,72.2576 22.06,0 0,-71.3552 c 0,-23.3125 12.01,-35.8633 31.73,-35.8633 19.54,0 31.55,11.8281 31.55,34.9609 l 0,72.2576 22.06,0 0,-71.1833 c 0,-37.4688 -21.16,-56.296919 -53.97,-56.296919 -32.63,0 -53.43,18.828119 -53.43,55.222619"
         style="fill:#4f4c4c;fill-opacity:1;fill-rule:nonzero;stroke:none"
         id="path3405"
         inkscape:connector-curvature="0" /><path
         d="m 2660.37,65.4375 c 15.78,0 25.82,8.2422 25.82,20.9766 l 0,0.3632 c 0,13.4457 -9.68,20.7887 -26,20.7887 l -32.09,0 0,-42.1285 32.27,0 z m -54.33,62.2185 55.94,0 c 15.78,0 28.15,-4.668 36.22,-12.558 6.63,-6.809 10.4,-16.1332 10.4,-27.0707 l 0,-0.3632 c 0,-20.6133 -12.37,-32.9883 -29.94,-38.0078 l 33.88,-47.50786 -25.99,0 -30.84,43.74996 -27.61,0 0,-43.74996 -22.06,0 0,125.50756"
         style="fill:#4f4c4c;fill-opacity:1;fill-rule:nonzero;stroke:none"
         id="path3407"
         inkscape:connector-curvature="0" /><path
         d="m 2765.26,64.5391 0,0.3632 c 0,35.6717 26.72,64.9027 64.73,64.9027 23.12,0 37.1,-8.067 49.12,-19.543 l -14.16,-16.3167 c -10.04,9.3247 -20.8,15.5937 -35.14,15.5937 -24.03,0 -41.42,-19.7148 -41.42,-44.2773 l 0,-0.3594 c 0,-24.5585 17.39,-44.6484 41.42,-44.6484 15.41,0 25.27,6.2774 36.03,16.3164 L 2880,22.2266 C 2866.92,8.60156 2852.57,0 2829.09,0 c -36.58,0 -63.83,28.5078 -63.83,64.5391"
         style="fill:#4f4c4c;fill-opacity:1;fill-rule:nonzero;stroke:none"
         id="path3409"
         inkscape:connector-curvature="0" /><path
         d="m 2938.27,127.656 22.06,0 0,-52.1794 59.88,0 0,52.1794 22.05,0 0,-125.50756 -22.05,0 0,52.89066 -59.88,0 0,-52.89066 -22.06,0 0,125.50756"
         style="fill:#4f4c4c;fill-opacity:1;fill-rule:nonzero;stroke:none"
         id="path3411"
         inkscape:connector-curvature="0" /></g></g></svg>